<mxfile host="app.diagrams.net" modified="2024-06-26T03:47:34.936Z" agent="Mozilla/5.0 (Macintosh; Intel Mac OS X 10_15_7) AppleWebKit/537.36 (KHTML, like Gecko) Chrome/126.0.0.0 Safari/537.36" etag="hZ_Wk_u3FssrLsIfWM0d" version="24.6.3" type="github">
  <diagram name="第 1 页" id="BiEs8fbrYXCGddLWKnpu">
    <mxGraphModel dx="984" dy="562" grid="1" gridSize="10" guides="1" tooltips="1" connect="1" arrows="1" fold="1" page="1" pageScale="1" pageWidth="827" pageHeight="1169" math="0" shadow="0">
      <root>
        <mxCell id="0" />
        <mxCell id="1" parent="0" />
      </root>
    </mxGraphModel>
  </diagram>
</mxfile>
